<svg width="25" height="25" viewBox="0 0 25 25" fill="none" xmlns="http://www.w3.org/2000/svg">
<path d="M23.5014 8.16291H17.8385C17.7065 8.16291 17.5759 8.13691 17.4539 8.08641C17.332 8.03591 17.2212 7.96188 17.1279 7.86857C17.0346 7.77525 16.9606 7.66447 16.9101 7.54254C16.8596 7.42062 16.8336 7.28994 16.8336 7.15797V1.49859C16.834 1.10222 16.6773 0.72184 16.3977 0.440901C16.118 0.159962 15.7384 0.00140138 15.342 1.03962e-06H9.6615C9.46493 -0.000230623 9.27024 0.0382566 9.08855 0.113265C8.90686 0.188274 8.74172 0.298335 8.60256 0.437164C8.4634 0.575994 8.35296 0.740873 8.27752 0.922388C8.20208 1.1039 8.16314 1.2985 8.16291 1.49506V7.15797C8.16291 7.4245 8.05703 7.6801 7.86857 7.86857C7.6801 8.05703 7.42449 8.16291 7.15797 8.16291H1.49859C1.30202 8.16267 1.10734 8.20116 0.925645 8.27617C0.743952 8.35118 0.578814 8.46124 0.439657 8.60007C0.3005 8.7389 0.19005 8.90378 0.114614 9.08529C0.0391773 9.26681 0.00023139 9.4614 0 9.65797V15.5254C0 16.1654 0.668195 16.8353 1.49506 16.8371H7.15797C7.42449 16.8371 7.6801 16.943 7.86857 17.1314C8.05703 17.3199 8.16291 17.5755 8.16291 17.842V23.5014C8.16267 23.698 8.20116 23.8927 8.27617 24.0744C8.35118 24.256 8.46124 24.4212 8.60007 24.5603C8.7389 24.6995 8.90378 24.8099 9.08529 24.8854C9.26681 24.9608 9.4614 24.9998 9.65797 25H15.3385C15.5351 25.0002 15.7298 24.9617 15.9115 24.8867C16.0931 24.8117 16.2583 24.7017 16.3974 24.5628C16.5366 24.424 16.647 24.2591 16.7225 24.0776C16.7979 23.8961 16.8369 23.7015 16.8371 23.5049V17.842C16.8371 17.5755 16.943 17.3199 17.1314 17.1314C17.3199 16.943 17.5755 16.8371 17.842 16.8371H23.5014C23.698 16.8373 23.8927 16.7988 24.0744 16.7238C24.256 16.6488 24.4212 16.5388 24.5603 16.3999C24.6995 16.2611 24.8099 16.0962 24.8854 15.9147C24.9608 15.7332 24.9998 15.5386 25 15.342V9.6615C25.0002 9.46493 24.9617 9.27024 24.8867 9.08855C24.8117 8.90686 24.7017 8.74172 24.5628 8.60256C24.424 8.46341 24.2591 8.35296 24.0776 8.27752C23.8961 8.20208 23.7015 8.16314 23.5049 8.16291H23.5014Z" fill="#212333"/>
<path d="M23.5014 8.16291H17.8385C17.7065 8.16291 17.5759 8.13691 17.4539 8.08641C17.332 8.03591 17.2212 7.96188 17.1279 7.86857C17.0346 7.77525 16.9606 7.66447 16.9101 7.54254C16.8596 7.42062 16.8336 7.28994 16.8336 7.15797V1.49859C16.834 1.10222 16.6773 0.72184 16.3977 0.440901C16.118 0.159962 15.7384 0.00140138 15.342 1.03962e-06H9.6615C9.46493 -0.000230623 9.27024 0.0382566 9.08855 0.113265C8.90686 0.188274 8.74172 0.298335 8.60256 0.437164C8.4634 0.575994 8.35296 0.740873 8.27752 0.922388C8.20208 1.1039 8.16314 1.2985 8.16291 1.49506V7.15797C8.16291 7.4245 8.05703 7.6801 7.86857 7.86857C7.6801 8.05703 7.42449 8.16291 7.15797 8.16291H1.49859C1.30202 8.16267 1.10734 8.20116 0.925645 8.27617C0.743952 8.35118 0.578814 8.46124 0.439657 8.60007C0.3005 8.7389 0.19005 8.90378 0.114614 9.08529C0.0391773 9.26681 0.00023139 9.4614 0 9.65797V15.5254C0 16.1654 0.668195 16.8353 1.49506 16.8371H7.15797C7.42449 16.8371 7.6801 16.943 7.86857 17.1314C8.05703 17.3199 8.16291 17.5755 8.16291 17.842V23.5014C8.16267 23.698 8.20116 23.8927 8.27617 24.0744C8.35118 24.256 8.46124 24.4212 8.60007 24.5603C8.7389 24.6995 8.90378 24.8099 9.08529 24.8854C9.26681 24.9608 9.4614 24.9998 9.65797 25H15.3385C15.5351 25.0002 15.7298 24.9617 15.9115 24.8867C16.0931 24.8117 16.2583 24.7017 16.3974 24.5628C16.5366 24.424 16.647 24.2591 16.7225 24.0776C16.7979 23.8961 16.8369 23.7015 16.8371 23.5049V17.842C16.8371 17.5755 16.943 17.3199 17.1314 17.1314C17.3199 16.943 17.5755 16.8371 17.842 16.8371H23.5014C23.698 16.8373 23.8927 16.7988 24.0744 16.7238C24.256 16.6488 24.4212 16.5388 24.5603 16.3999C24.6995 16.2611 24.8099 16.0962 24.8854 15.9147C24.9608 15.7332 24.9998 15.5386 25 15.342V9.6615C25.0002 9.46493 24.9617 9.27024 24.8867 9.08855C24.8117 8.90686 24.7017 8.74172 24.5628 8.60256C24.424 8.46341 24.2591 8.35296 24.0776 8.27752C23.8961 8.20208 23.7015 8.16314 23.5049 8.16291H23.5014Z" fill="url(#paint0_linear)"/>
<path d="M16.3205 10.6612L15.0917 4.9436L10.6065 15.4055L8.45381 11.3064L7.00635 13.9422L0 13.9369V14.3847L7.29725 14.39L7.80677 13.4909L10.744 19.0797L15.3367 8.42738L15.9291 11.1107H25V10.6612H16.3205Z" fill="#212333"/>
<path d="M16.3205 10.6612L15.0917 4.9436L10.6065 15.4055L8.45381 11.3064L7.00635 13.9422L0 13.9369V14.3847L7.29725 14.39L7.80677 13.4909L10.744 19.0797L15.3367 8.42738L15.9291 11.1107H25V10.6612H16.3205Z" fill="white"/>
<defs>
<linearGradient id="paint0_linear" x1="18.7236" y1="1.72073" x2="6.27645" y2="23.2793" gradientUnits="userSpaceOnUse">
<stop stop-color="#C2F35E"/>
<stop offset="1" stop-color="#07C0BF"/>
</linearGradient>
</defs>
</svg>
